<svg width="225" height="225" viewBox="0 0 225 225" fill="none" xmlns="http://www.w3.org/2000/svg">
<path d="M225 112.5C225 174.632 174.632 225 112.5 225C50.368 225 0 174.632 0 112.5C0 50.368 50.368 0 112.5 0C174.632 0 225 50.368 225 112.5Z" fill="#54AED5"/>
<path d="M141.891 160.627C141.373 160.692 141.935 163.76 142.042 164.133C142.254 164.873 142.321 165.489 142.321 166.364C142.321 167.01 142.321 165.073 142.321 164.428C142.321 164.055 142.397 162.725 142.106 162.492C141.517 162.02 142.709 161.16 142.751 161.918C142.784 162.512 142.751 163.117 142.751 163.711C142.751 164.293 142.921 165.015 142.178 164.643" stroke="#D9D9D9" stroke-width="7"/>
<path d="M102.737 161.058C103.711 161.622 104.59 162.403 105.55 163.01C106.999 163.927 108.335 165.011 109.701 166.046C111.427 167.353 113.027 168.792 114.633 170.237C115.623 171.128 117.707 173.628 115.262 173.966C111.232 174.522 107.153 173.931 103.231 173.009C100.323 172.326 97.8692 171.56 95.2631 170.125C93.5349 169.173 91.8984 168.126 91.1517 166.221C90.5868 164.78 90.6896 163.157 90.6896 161.639C90.6896 160.612 91.1198 159.796 91.1198 158.763C91.1198 157.223 91.1198 155.682 91.1198 154.142C91.1198 153.439 91.1399 153.324 91.5501 152.811C91.6681 152.664 91.984 152.76 92.1556 152.707C92.5181 152.596 92.7578 152.444 92.9843 152.134C93.4342 151.518 93.8448 150.972 93.8448 150.158C93.8448 149.059 93.0101 148.293 91.9803 148.293C91.0967 148.293 90.1424 149.127 89.5103 149.696C88.6631 150.458 88.0065 151.044 87.606 152.166C87.4038 152.732 87.2537 153.335 86.9925 153.887C86.8899 154.103 86.771 154.313 86.6738 154.532C86.3804 155.192 86.4037 155.65 86.379 156.428C86.1978 162.134 86.1001 167.579 86.1001 173.137C86.1001 174.241 86.1895 175.324 86.2435 176.404C86.2728 176.989 86.5304 177.555 86.5304 178.125C86.5304 179.735 86.7016 181.403 86.8252 183.009C86.9103 184.116 87.5314 185.789 88.108 186.762C88.37 187.204 88.3715 187.807 88.61 188.236C89.1856 189.272 89.411 189.847 90.4824 190.459C91.7809 191.201 93.1775 190.991 94.6257 191.033C96.4323 191.084 98.3135 191.284 100.155 191.176C100.724 191.143 99.7009 186.77 99.6295 186.443C98.9404 183.286 98.2097 179.889 96.5698 177.065C96.0463 176.163 95.5175 175.063 94.8169 174.284C94.5649 174.004 93.9682 174.71 93.6297 174.898C92.8225 175.346 92.6941 170.009 91.6935 173.567C91.4195 174.542 91.2273 175.552 91.0481 176.547C90.8065 177.89 90.3611 179.266 90.2673 180.627C90.1756 181.956 90.1497 183.219 91.0083 184.292C91.6434 185.086 95.5524 188.274 96.1077 185.901C96.62 183.712 96.6066 181.632 95.4304 179.647C94.9113 178.771 94.4252 177.701 93.7014 176.977C92.9209 176.197 92.9406 176.843 92.809 177.583C92.4771 179.45 93.1047 181.442 94.9922 182.268C95.5237 182.501 96.481 182.781 96.9204 182.268C98.112 180.878 98.1325 178.51 98.2909 176.802C98.7551 171.793 98.554 166.179 101.135 161.695C101.152 161.667 102.09 160.043 102.163 160.627C102.215 161.041 102.174 159.615 102.163 159.48C102.027 157.772 101.766 155.379 100.872 153.855C100.608 153.404 100.147 153.035 100.004 152.532C99.8687 152.059 99.489 151.518 99.1514 151.162C98.8009 150.792 98.4775 150.408 98.1156 150.046C97.9164 149.847 97.8144 149.253 97.4941 149.162C97.1148 149.053 94.974 148.867 96.3547 148.867C97.1754 148.867 98.0877 149.385 98.8646 149.616C99.6424 149.847 100.384 150.477 101.08 150.875C101.77 151.269 102.704 152.246 103.597 151.799C104.082 151.557 104.441 150.892 104.824 150.508C105.163 150.169 105.741 149.741 105.43 149.154C105.079 148.491 103.085 148.967 102.593 149.186C101.86 149.511 102.169 149.187 102.625 149.552C102.75 149.652 103.077 149.643 103.247 149.735C103.635 149.947 104.004 150.38 104.251 150.739C105.037 151.883 105.998 152.845 106.976 153.823C108.053 154.9 108.753 156.317 109.836 157.4C110.223 157.787 110.546 158.189 111.127 158.189C111.711 158.189 111.881 157.857 112.346 157.584C114.071 156.569 112.537 154.554 111.517 153.743C110.125 152.635 108.94 151.234 107.318 150.524C104.536 149.307 101.442 150.834 99.4462 152.739C98.3778 153.759 97.0153 154.676 96.0838 155.815C95.4558 156.582 95.7093 158.552 95.7093 159.48C95.7093 160.475 95.9068 161.71 95.4942 162.627C95.0077 163.708 94.5037 164.793 93.9882 165.854C93.9063 166.023 93.4109 167.399 93.7014 167.368C94.3185 167.303 95.2201 165.829 95.6456 165.44C97.1513 164.062 99.4215 162.213 101.478 161.87C104.356 161.391 107.896 161.869 109.796 164.309C110.8 165.597 110.912 167.013 110.912 168.571C110.912 171.229 106.365 170.715 104.777 170.093C103.543 169.611 101.846 168.95 100.904 168.197C100.809 168.121 100.71 167.917 100.586 167.886C100.315 167.818 99.9595 169.698 99.9322 169.822C98.8727 174.638 97.9587 180.005 98.753 184.929C98.9231 185.984 100.271 188.742 101.725 187.869C103.29 186.93 104.278 185.228 106.004 184.467C106.557 184.223 107.954 184.003 107.295 184.866C106.226 186.263 105.363 187.909 104.617 189.495C104.225 190.328 104.776 190.013 105.494 189.742C106.793 189.251 108.385 189.168 109.773 189.168C111.395 189.168 113.018 189.168 114.641 189.168C115.608 189.168 116.447 189.742 117.366 189.742C117.881 189.742 118.396 189.742 118.912 189.742C119.113 189.742 119.386 189.79 119.581 189.734C120.123 189.579 119.239 186.075 119.159 185.774C118.827 184.534 118.448 183.077 117.844 181.933C117.025 180.384 115.099 179.638 113.493 179.24C111.584 178.767 109.634 178.591 107.677 178.483C106.275 178.406 104.839 178.515 103.454 178.268C101.741 177.962 100.033 177.695 98.2909 177.695C96.8475 177.695 100.464 179.168 100.594 179.208C102.232 179.719 104.044 179.854 105.589 180.627C106.7 181.182 107.745 181.828 108.697 182.619C109.586 183.357 110.378 184.045 111.119 184.921C111.496 185.367 112.078 185.638 112.49 185.073C113.293 183.968 114.26 182.962 114.96 181.79C115.778 180.42 115.96 178.754 116.147 177.201C116.35 175.507 116.521 173.811 116.712 172.117C116.748 171.8 117.083 170.954 116.649 170.954C116.201 170.954 116.357 170.495 116.394 170.141C116.672 167.501 116.936 164.831 116.936 162.173C116.936 160.675 116.792 159.198 116.792 157.703C116.792 157.178 116.505 156.705 116.505 156.181C116.505 155.643 115.848 155.949 115.565 156.03C115.15 156.149 114.604 156.218 114.282 156.54C113.77 157.053 113.41 157.592 112.92 158.11C112.589 158.459 112.203 159.289 112.203 159.767C112.203 160.622 111.85 161.044 112.904 161.408C114.516 161.966 116.341 161.985 117.884 162.731C118.716 163.134 119.275 163.971 119.916 164.611C120.163 164.859 120.787 165.263 120.808 165.647C120.827 165.996 119.642 166.653 119.294 166.874C118.837 167.165 118.392 167.497 117.94 167.798" stroke="#D9D9D9" stroke-width="7"/>
<path d="M110.051 158.046C109.154 158.046 108.256 158.046 107.358 158.046C106.954 158.046 105.012 158.292 105.183 157.695C105.227 157.541 105.502 157.754 105.605 157.759C105.982 157.779 106.341 157.668 106.689 157.536C108.39 156.891 110.143 156.314 111.9 155.831C112.904 155.555 113.906 155.093 114.92 154.891C115.425 154.79 116.044 154.686 116.505 154.492C116.807 154.365 117.612 154.326 117.94 154.317C118.512 154.301 119.076 154.194 119.629 154.173C121.448 154.106 123.304 153.887 125.111 153.887C128.112 153.887 131.113 153.887 134.114 153.887C136.203 153.887 138.54 153.96 140.241 155.321C141.367 156.222 142.178 157.471 142.178 158.906C142.178 159.456 142.036 159.152 141.716 158.938C141.634 158.884 141.408 159.831 141.381 159.91C141.181 160.491 140.924 161.041 140.743 161.631C140.006 164.042 139.022 166.669 139.022 169.233C139.022 170.091 139.022 170.948 139.022 171.806C139.022 172.452 139.019 173.927 139.851 172.818C140.573 171.855 140.456 171.063 140.751 170.029C140.856 169.665 141.923 168.841 142.241 168.659C142.403 168.567 142.608 168.123 142.608 168.452C142.608 169.416 142.266 170.315 142.034 171.241C141.339 174.024 141.317 176.822 141.317 179.671C141.317 180.013 141.317 180.356 141.317 180.698C141.317 180.871 141.439 181.338 141.317 181.216C140.552 180.451 140.771 177.967 140.672 176.977C140.499 175.251 140.554 173.563 141.03 171.894C141.295 170.968 141.636 170.051 141.755 169.097C141.845 168.381 141.847 167.676 141.891 166.938C141.916 166.517 143.182 166.266 143.182 167.153C143.182 168.314 142.935 169.422 142.895 170.555C142.865 171.395 142.647 172.274 142.576 173.121C142.389 175.371 142.465 177.637 142.465 179.894C142.465 181.43 142.268 183.155 142.6 184.65C142.769 185.409 141.964 186.508 141.899 187.296C141.834 188.078 141.604 188.877 141.604 189.662C141.604 190.17 141.058 191.143 140.457 191.176C139.529 191.228 138.633 191.086 137.732 191.033C136.738 190.974 135.644 190.987 134.64 190.881C133.868 190.8 133.131 190.746 132.353 190.746C132.187 190.746 132.018 190.755 131.851 190.746C131.617 190.733 131.62 190.469 131.421 190.459C129.302 190.353 127.226 190.954 125.103 190.674C124.106 190.543 123.325 190.414 122.457 190.029C122.088 189.865 121.545 189.465 121.382 189.097C120.765 187.709 122.712 186.676 123.629 186.061C125.693 184.675 127.917 183.808 130.385 183.607C132.282 183.452 133.72 183.943 135.405 184.722C136.508 185.232 137.46 185.847 138.417 186.587C138.874 186.94 139.414 187.017 138.592 187.017C137.539 187.017 136.965 186.745 136.082 186.156C134.588 185.16 133.392 183.814 131.843 182.858C130.371 181.948 128.81 181.122 127.262 180.348C126.781 180.107 126.309 179.762 125.796 179.591C124.838 179.272 123.744 179.416 122.752 179.416C122.262 179.416 121.743 179.369 121.254 179.424C120.919 179.461 121.064 179.633 120.92 179.814C120.743 180.035 120.792 180.416 120.808 180.706C120.877 181.955 125.248 181.693 125.828 181.702C128.573 181.749 131.321 181.71 134.066 181.71C135.37 181.71 137.005 181.463 138.281 181.782C138.533 181.845 139.134 182.411 139.238 182.411C139.277 182.411 138.423 181.717 138.305 181.631C137.688 181.181 137.027 180.698 136.329 180.388C134.702 179.665 133.133 179.102 131.596 178.157C130.841 177.692 130.053 177.307 129.302 176.834C128.275 176.187 128.167 176.448 127.461 176.396C125.742 176.268 123.964 175.101 122.449 174.388C121.533 173.956 120.257 173.548 119.453 172.89C118.676 172.254 121.773 170.424 122.386 170.093C123.106 169.704 125.741 167.734 126.481 168.81C127.274 169.964 128.199 170.997 129.055 172.101C130.138 173.499 131.598 174.583 132.68 175.973C132.747 176.06 133.297 177.045 133.541 176.802C133.8 176.542 133.842 175.165 133.859 174.826C133.934 173.365 134.426 171.952 134.688 170.523C134.956 169.063 135.305 167.483 135.955 166.133C136.276 165.466 136.943 164.841 137.158 164.141C137.299 163.684 137.732 163.52 137.732 162.994C137.732 162.531 137.063 162.197 136.728 161.847C135.884 160.965 135.17 159.947 134.114 159.305C132.35 158.231 130.599 158.12 128.585 158.189C127.908 158.213 126.848 158.816 126.226 159.082C125.378 159.443 124.589 159.644 123.676 159.775C122.899 159.886 122.063 160.016 121.294 160.197C120.895 160.291 120.218 160.293 119.916 160.596C119.747 160.764 121.01 161.395 121.238 161.52C122.253 162.075 122.94 163.131 123.82 163.854C124.499 164.412 125.061 165.036 125.613 165.711C125.902 166.064 126.281 166.364 126.76 166.364C127.967 166.364 127.838 165.294 128.521 164.611C128.873 164.259 128.977 163.392 129.238 162.922C129.635 162.207 129.983 162.062 130.776 162.062C131.321 162.062 130.704 165.474 130.704 165.966C130.704 167.475 130.704 168.726 130.704 170.237" stroke="#D9D9D9" stroke-width="7"/>
<path d="M89.4743 191.958V196.604C84.4365 196.478 80.3879 192.545 80.2535 187.679H85.0611C85.1903 189.993 87.1025 191.836 89.4743 191.958ZM140.748 196.607H89.9743V191.964H140.748V196.607ZM150.469 187.679C150.334 192.545 146.286 196.478 141.248 196.604V191.958C143.62 191.836 145.532 189.993 145.661 187.679H150.469ZM150.472 158.536V187.179H145.668V158.536H150.472ZM141.248 149.11C146.286 149.237 150.334 153.169 150.469 158.036H145.661C145.532 155.721 143.62 153.878 141.248 153.756V149.11ZM110.164 143.101L115.843 148.607H115.361H115.111V148.857V151.323L113.486 152.899L107.807 147.393H108.289H108.539V147.143V144.677L110.164 143.101ZM113.855 153.237L115.111 152.019V153.737C114.88 153.714 114.654 153.659 114.439 153.572C114.228 153.488 114.032 153.375 113.855 153.237ZM109.795 142.763L108.539 143.981V142.263C108.77 142.286 108.996 142.341 109.211 142.428C109.422 142.512 109.618 142.625 109.795 142.763ZM108.039 142.25V144.466L106.239 146.21L106.054 146.39L106.239 146.569L106.573 146.893H89.9743V142.25H108.039ZM80.2535 151.179C80.3879 146.312 84.4365 142.379 89.4743 142.253V146.899C87.1025 147.021 85.1903 148.864 85.0611 151.179H80.2535ZM80.25 187.179V151.679H85.0542V187.179H80.25ZM108.039 146.893H107.291L106.773 146.39L108.039 145.162V146.893ZM140.748 153.75H115.611V151.534L117.411 149.79L117.596 149.61L117.411 149.431L117.077 149.107H140.748V153.75ZM115.611 150.838V149.107H116.359L116.877 149.61L115.611 150.838Z" fill="black" stroke="black" stroke-width="0.5"/>
<path d="M102.307 160.914C102.41 161.006 102.471 161.017 102.593 161.058" stroke="#D9D9D9" stroke-width="7"/>
<path d="M59.8354 58.8721C60.1186 59.4072 60.7576 59.8461 61.1827 60.2712C62.2347 61.3233 63.1582 62.4747 64.209 63.5256C64.7906 64.1072 65.3788 64.7046 65.9398 65.303C66.1161 65.4911 66.4417 65.6488 66.5513 65.8678" stroke="#D9D9D9" stroke-width="3"/>
<path d="M68.4168 71.0913C67.7527 71.0913 66.8069 70.2993 66.344 69.858C65.3489 68.9096 64.2418 67.9848 63.1519 67.153C62.4385 66.6086 61.7391 65.8703 61.193 65.1683C60.8393 64.7134 60.1631 64.2967 59.9286 63.7691C59.7925 63.4629 59.5578 63.1548 59.3275 62.9244C59.0996 62.6966 59.1149 62.1963 58.8093 62.0435" stroke="#D9D9D9" stroke-width="3"/>
<path d="M63.1 58.1259C63.1 59.1508 62.8792 60.4757 63.1415 61.4631C63.5571 63.0275 64.4778 64.4647 65.5719 65.6398C66.3924 66.5212 67.2265 67.3914 68.0333 68.2879C68.2608 68.5406 68.6008 68.81 68.7847 69.0859C68.8637 69.2043 68.9765 69.5162 68.9765 69.2258" stroke="#D9D9D9" stroke-width="3"/>
<path d="M71.4017 70.0653C71.0674 70.0653 70.7801 69.537 70.5622 69.3191C70.0203 68.7772 69.505 68.0823 69.0698 67.4536C68.3864 66.4665 67.7407 65.4481 67.1109 64.448C66.1863 62.9794 65.9317 61.1208 66.173 59.4318C66.2992 58.5484 66.8 57.807 67.1524 57.0014C67.204 56.8834 67.5773 55.9779 67.5773 56.3536C67.5773 56.5553 67.5482 56.8713 67.7172 57.0066C68.1267 57.3341 68.0753 58.2938 68.2769 58.7374C68.3969 59.0013 68.3184 59.3502 68.4375 59.6183C68.5868 59.9541 68.6307 60.3204 68.8106 60.6443C69.0952 61.1566 69.4256 61.7938 69.816 62.2301C69.963 62.3944 69.9783 62.5927 70.0958 62.769C70.3202 63.1056 70.6342 63.4161 70.8938 63.7277C71.2652 64.1734 71.8813 64.6331 72.1686 65.1216C73.1902 66.8583 71.0903 61.224 70.842 59.2245C70.6553 57.7213 70.679 55.9475 70.1373 54.5192C69.9255 53.9609 69.8291 53.4226 69.816 52.8298C69.809 52.5142 69.6294 52.2344 69.6294 51.923C69.6294 51.3998 69.6947 51.6262 69.7227 51.9903C69.7478 52.3174 70.0841 52.7856 70.2357 53.0889C70.6439 53.9054 71.0868 56.5921 71.1218 55.68C71.151 54.9218 71.3276 53.6876 71.1011 52.9231C71.0009 52.5848 70.9353 52.2321 70.9353 51.8763C70.9353 51.7887 70.9822 51.4983 70.9146 51.4307C70.8434 51.3595 70.8492 51.6677 70.7902 51.6846C70.5926 51.7411 70.3857 51.1987 70.3756 51.0368C70.3531 50.6769 70.4119 51.7586 70.4689 52.1147C70.6154 53.0304 70.8273 53.9346 71.0286 54.8405C71.2874 56.0054 71.7642 57.4843 71.5312 58.6752C71.3937 59.378 70.6273 59.6755 70.0388 59.9448C68.8649 60.482 67.613 60.6588 66.3647 60.9449C64.3669 61.4027 62.4175 61.9763 60.4054 62.37C60.1173 62.4263 59.1824 62.419 59.1824 62.8104C59.1824 63.2307 58.9959 63.6188 58.9959 64.023C58.9959 64.3032 59.0685 64.7041 58.9907 64.9765C58.9662 65.0623 58.8198 65.2045 58.7575 65.2667C58.3515 65.6727 57.9984 66.1675 57.6382 66.6141C56.5659 67.9431 55.5702 69.2644 54.332 70.4436C53.7024 71.0432 53.171 71.6927 52.565 72.2988C51.7538 73.1099 51.1198 74.0888 50.176 74.781C49.5407 75.2468 48.9577 75.8777 48.269 76.2423C47.8647 76.4563 47.3497 76.633 47.0357 76.947C46.6653 77.3175 46.518 77.8794 46.1029 78.2529C45.7932 78.5317 45.5511 79.104 45.9578 79.4655C46.1439 79.6309 48.7693 75.9055 49.0153 75.6204C50.0202 74.4556 51.0933 73.2321 52.368 72.3558C52.8841 72.001 53.1131 72.2982 53.306 72.7911C53.6416 73.6488 54.0495 74.4797 54.3787 75.3354C54.7717 76.3574 53.6276 76.6126 52.8914 76.802C52.3439 76.9427 51.4256 76.659 50.9533 76.9678C50.6592 77.1601 49.795 78.0657 49.6734 77.3357C49.5277 76.4616 49.9572 75.7292 50.4351 75.0401C51.1476 74.0128 51.9985 73.3316 52.8759 72.4542C53.3476 71.9825 53.8329 71.6076 54.1455 70.9981C54.5199 70.2679 54.9379 69.3334 55.0782 68.5262C55.1353 68.1982 55.2612 67.8978 55.3581 67.5831C55.3987 67.451 55.3899 67.1107 55.4721 67.0079C55.5133 66.9564 55.6153 66.7824 55.4513 66.8006C55.1893 66.8297 54.7199 67.5512 54.56 67.7386C53.3939 69.1058 52.2614 70.6263 51.3679 72.1899C51.0629 72.7237 50.7961 73.2286 50.6217 73.8171C50.4433 74.4191 50.3737 75.1373 50.9015 75.5479C51.1877 75.7705 53.0572 73.9606 53.4718 73.8171C53.9753 73.6428 54.5591 73.9099 54.9953 74.128C55.287 74.2739 55.6354 74.6566 55.9488 74.7136C55.9831 74.7198 56.2029 73.3045 56.2183 73.2471C56.6381 71.6849 57.699 70.0437 58.6176 68.7232C58.8799 68.3461 59.1427 67.9365 59.3223 68.5832C59.5834 69.523 58.9002 72.9234 60.5349 72.6719C61.2706 72.5587 61.2657 70.8602 61.3485 70.3451C61.3855 70.115 61.4547 68.7978 61.5195 68.8734C61.8662 69.2779 62.0843 69.8182 62.4056 70.2467C62.7948 70.7656 63.2754 71.2048 63.6597 71.7236C63.7758 71.8803 64.3319 72.1006 64.4007 71.7909C64.4202 71.7032 64.4059 71.4316 64.4059 71.5215C64.4059 71.8113 64.5089 71.9471 64.665 72.1899C64.7493 72.3211 65.2542 72.9999 65.5045 72.7496C65.6515 72.6026 65.5228 72.0009 65.3801 71.8842C64.9231 71.5102 64.3247 71.0843 63.753 70.9255C63.4059 70.8291 63.1326 70.7182 62.7736 70.7182C62.3812 70.7182 62.5404 71.5171 62.5404 71.7546C62.5404 71.9196 62.416 72.8201 62.6337 72.9361C62.7183 72.9813 62.4616 72.5294 62.4264 72.4698C62.1971 72.0817 61.9461 71.7026 61.7009 71.3245C61.0911 70.3844 61.048 69.1058 61.048 68.0132C61.048 67.1806 61.048 66.348 61.048 65.5155C61.048 65.3131 61.3122 64.9351 60.9029 64.9351C60.417 64.9351 60.2295 65.1167 59.9079 65.474C59.581 65.8373 60.3894 65.5222 60.4987 65.4377C61.1547 64.9308 61.5269 64.185 62.1155 63.6292C62.5288 63.2388 63.1437 64.8719 63.24 65.0854C63.5027 65.6679 63.7378 66.2891 64.1313 66.8006C64.2647 66.9741 64.7469 67.4191 64.5717 67.2877C64.5417 67.2652 64.5987 67.4332 64.8205 67.4743C65.6208 67.6225 66.4154 67.7463 67.2198 67.8733C67.9003 67.9807 68.6207 68.1234 69.2667 68.3656C69.6637 68.5145 69.9736 68.7594 70.4171 68.7594C71.1181 68.7594 71.4386 68.0417 72.0857 67.7541C72.6553 67.501 73.3689 67.7245 73.8372 67.3603C74.9213 66.5171 76.2922 66.3454 77.5579 65.9611C78.1137 65.7924 78.6789 65.8612 79.2162 65.702C79.7806 65.5348 80.5518 65.7098 81.1025 65.7746C81.375 65.8066 82.2313 66.2291 82.0352 66.4741C81.8542 66.7004 80.5032 66.2614 80.2837 66.2202C79.203 66.0176 78.101 66.0544 77.0035 66.0544C74.8529 66.0544 72.7024 66.0544 70.5518 66.0544C69.5044 66.0544 68.0793 65.8616 67.199 65.2564C66.7026 64.915 66.4668 64.2453 66.6653 63.6499C66.7448 63.4114 67.1511 63.793 67.2975 63.8365C68.0823 64.0698 68.821 64.4891 69.531 64.8884C69.6696 64.9664 69.783 65.1254 69.9455 65.1579C69.9675 65.1623 69.4773 64.3374 69.4221 64.2614C68.2859 62.6959 67.0538 61.2107 65.9709 59.6028C65.4747 58.866 64.9801 58.13 64.3645 57.5144C64.2852 57.4351 63.78 57.0569 63.753 57.2864C63.7054 57.6905 63.5664 58.0255 63.5664 58.4523C63.5664 58.9947 63.9003 58.0178 63.9395 57.9393C64.1096 57.5991 64.2684 57.257 64.4059 56.9133" stroke="#D9D9D9" stroke-width="3"/>
<path d="M42.1562 80.5V112.594H88.8438V63.2188" fill="#D9D9D9"/>
<path d="M42.1562 80.5V112.594H88.8438V63.2188" stroke="black" stroke-width="4" stroke-miterlimit="10" stroke-linecap="round" stroke-linejoin="round"/>
<path d="M73.2812 48.4062V63.2188H88.8438L73.2812 48.4062H42.1562V80.5" fill="#D9D9D9"/>
<path d="M73.2812 48.4062V63.2188H88.8438L73.2812 48.4062ZM73.2812 48.4062H42.1562V80.5" stroke="black" stroke-width="4" stroke-miterlimit="10" stroke-linecap="round" stroke-linejoin="round"/>
<path d="M31.7812 80.5H65.5" stroke="black" stroke-width="4" stroke-miterlimit="10" stroke-linecap="round" stroke-linejoin="round"/>
<path d="M55.125 70.625L65.5 80.5L55.125 90.375" stroke="black" stroke-width="4" stroke-miterlimit="10" stroke-linecap="round" stroke-linejoin="round"/>
<path d="M66.9244 55.2343C66.9244 54.952 67.3133 54.7358 67.396 54.4466C67.449 54.2608 67.79 54.1988 67.9504 54.2082C68.1343 54.2191 68.2072 54.5025 68.2769 54.628C68.7204 55.4263 67.3459 55.4614 67.2094 55.939C67.1446 56.1657 67.0416 56.386 67.1317 55.9805C67.214 55.6098 67.2975 55.1953 67.2975 54.8145C67.2975 54.259 66.2077 55.1076 66.1056 55.2136C65.7756 55.5563 65.5011 56.0465 65.2454 56.4417C65.0148 56.798 64.6868 57.0752 64.4266 57.4004C64.2715 57.5943 64.4059 58.4392 64.4059 58.6855C64.4059 59.1481 64.4992 59.5162 64.4992 59.9914" stroke="#D9D9D9" stroke-width="3"/>
<g clip-path="url(#clip0_9_26)">
<path d="M205.125 80.625V109.375H199.375L193.625 92.125V109.375H187.875V80.625H193.625L199.375 97.875V80.625H205.125Z" fill="black"/>
<path d="M177.334 109.375H169.666C168.396 109.374 167.178 108.868 166.28 107.97C165.382 107.072 164.876 105.854 164.875 104.584V85.4162C164.876 84.1459 165.382 82.9281 166.28 82.0299C167.178 81.1317 168.396 80.6264 169.666 80.625H177.334C178.604 80.6264 179.822 81.1317 180.72 82.0299C181.618 82.9281 182.124 84.1459 182.125 85.4162V104.584C182.124 105.854 181.618 107.072 180.72 107.97C179.822 108.868 178.604 109.374 177.334 109.375ZM170.625 103.625H176.375V86.375H170.625V103.625Z" fill="black"/>
<path d="M154.334 109.375H141.875V103.625H153.375V97.875H147.625C146.1 97.8735 144.639 97.2672 143.561 96.1892C142.483 95.1112 141.877 93.6495 141.875 92.125V85.4162C141.876 84.1459 142.382 82.9281 143.28 82.0299C144.178 81.1317 145.396 80.6264 146.666 80.625H159.125V86.375H147.625V92.125H153.375C154.9 92.1265 156.361 92.7328 157.439 93.8108C158.517 94.8888 159.123 96.3505 159.125 97.875V104.584C159.124 105.854 158.618 107.072 157.72 107.97C156.822 108.868 155.604 109.374 154.334 109.375Z" fill="black"/>
<path d="M131.334 109.375H123.666C122.396 109.374 121.178 108.868 120.28 107.97C119.382 107.072 118.876 105.854 118.875 104.584V97.875H124.625V103.625H130.375V80.625H136.125V104.584C136.124 105.854 135.618 107.072 134.72 107.97C133.822 108.868 132.604 109.374 131.334 109.375Z" fill="black"/>
</g>
<defs>
<clipPath id="clip0_9_26">
<rect width="92" height="92" fill="white" transform="translate(116 49)"/>
</clipPath>
</defs>
</svg>
