<svg width="225" height="225" viewBox="0 0 225 225" fill="none" xmlns="http://www.w3.org/2000/svg">
<path d="M225 112.5C225 174.632 174.632 225 112.5 225C50.368 225 0 174.632 0 112.5C0 50.368 50.368 0 112.5 0C174.632 0 225 50.368 225 112.5Z" fill="url(#paint0_linear_4_356)"/>
<g filter="url(#filter0_d_4_356)">
<rect x="43" y="50" width="90" height="90" fill="#D9D9D9"/>
<rect x="45" y="52" width="86" height="86" stroke="black" stroke-width="4"/>
</g>
<g filter="url(#filter1_d_4_356)">
<rect x="92" y="84" width="90" height="90" fill="#D9D9D9"/>
<rect x="94" y="86" width="86" height="86" stroke="black" stroke-width="4"/>
</g>
<path d="M131.5 113.5L154.5 86" stroke="black" stroke-width="4"/>
<path d="M130.5 101.5L143 86.5" stroke="black" stroke-width="4"/>
<path d="M131 129.5L167 86" stroke="black" stroke-width="4"/>
<path d="M108 172L180 87" stroke="black" stroke-width="4"/>
<path d="M121 172L180 101" stroke="black" stroke-width="4"/>
<path d="M134.5 172L179.5 116.5" stroke="black" stroke-width="4"/>
<path d="M146.5 171.5L180 130" stroke="black" stroke-width="4"/>
<path d="M159 171.5L180 144.5" stroke="black" stroke-width="4"/>
<path d="M169.5 172L180.5 158" stroke="black" stroke-width="4"/>
<rect x="94" y="86" width="37" height="52" fill="#D9D9D9" stroke="black" stroke-width="4"/>
<path d="M94 154.5L109 138.5" stroke="black" stroke-width="4"/>
<path d="M94 171L123 138" stroke="black" stroke-width="4"/>
<defs>
<filter id="filter0_d_4_356" x="39" y="50" width="98" height="98" filterUnits="userSpaceOnUse" color-interpolation-filters="sRGB">
<feFlood flood-opacity="0" result="BackgroundImageFix"/>
<feColorMatrix in="SourceAlpha" type="matrix" values="0 0 0 0 0 0 0 0 0 0 0 0 0 0 0 0 0 0 127 0" result="hardAlpha"/>
<feOffset dy="4"/>
<feGaussianBlur stdDeviation="2"/>
<feComposite in2="hardAlpha" operator="out"/>
<feColorMatrix type="matrix" values="0 0 0 0 0 0 0 0 0 0 0 0 0 0 0 0 0 0 0.25 0"/>
<feBlend mode="normal" in2="BackgroundImageFix" result="effect1_dropShadow_4_356"/>
<feBlend mode="normal" in="SourceGraphic" in2="effect1_dropShadow_4_356" result="shape"/>
</filter>
<filter id="filter1_d_4_356" x="88" y="84" width="98" height="98" filterUnits="userSpaceOnUse" color-interpolation-filters="sRGB">
<feFlood flood-opacity="0" result="BackgroundImageFix"/>
<feColorMatrix in="SourceAlpha" type="matrix" values="0 0 0 0 0 0 0 0 0 0 0 0 0 0 0 0 0 0 127 0" result="hardAlpha"/>
<feOffset dy="4"/>
<feGaussianBlur stdDeviation="2"/>
<feComposite in2="hardAlpha" operator="out"/>
<feColorMatrix type="matrix" values="0 0 0 0 0 0 0 0 0 0 0 0 0 0 0 0 0 0 0.25 0"/>
<feBlend mode="normal" in2="BackgroundImageFix" result="effect1_dropShadow_4_356"/>
<feBlend mode="normal" in="SourceGraphic" in2="effect1_dropShadow_4_356" result="shape"/>
</filter>
<linearGradient id="paint0_linear_4_356" x1="118" y1="-4" x2="109.5" y2="279.5" gradientUnits="userSpaceOnUse">
<stop offset="0.760417" stop-color="#54AED5"/>
<stop offset="1" stop-color="#A8CFEC" stop-opacity="0"/>
</linearGradient>
</defs>
</svg>
