<svg width="225" height="225" viewBox="0 0 225 225" fill="none" xmlns="http://www.w3.org/2000/svg">
<path d="M225 112.5C225 174.632 174.632 225 112.5 225C50.368 225 0 174.632 0 112.5C0 50.368 50.368 0 112.5 0C174.632 0 225 50.368 225 112.5Z" fill="#54AED5"/>
<path d="M115.159 101.917C115.039 102.573 114.498 103.205 114.161 103.754C112.814 105.947 111.366 108.048 109.895 110.159C108.56 112.077 107.268 114.075 106.382 116.247C106.157 116.797 105.931 118.125 106.613 116.897C108.868 112.838 111.052 108.509 112.874 104.231C113.82 102.01 114.404 99.5865 114.971 97.2469C115.143 96.5363 115.921 93.5405 114.436 95.2514C112.384 97.614 110.193 99.6767 107.538 101.353C106.983 101.704 108.264 100.256 108.681 99.7484C110.235 97.8537 111.811 95.405 113.713 93.8488C115.482 92.4009 111.023 97.5523 109.548 99.3001C106.143 103.337 102.394 107.013 98.6024 110.68C96.4267 112.784 100.135 109.711 100.844 109.205" stroke="#D9D9D9" stroke-width="3" stroke-linecap="round"/>
<path d="M118.802 103.219C118.225 104.215 117.317 105.055 116.518 105.865C112.919 109.509 108.93 112.812 104.849 115.9C104.092 116.473 101.789 118.147 102.579 117.62C104.999 116.007 107.151 113.64 108.999 111.432C111.311 108.668 113.146 105.631 115.231 102.713C115.658 102.115 116.99 100.393 116.691 101.064C115.97 102.687 114.619 104.203 113.626 105.648C111.968 108.062 110.329 110.491 108.652 112.892C107.824 114.078 105.812 117.754 105.991 116.319C106.118 115.308 106.951 114.52 107.495 113.659C109.468 110.539 111.569 107.5 113.684 104.477C116.105 101.015 119.164 97.6281 121.203 93.9211C121.571 93.251 119.841 94.6467 119.265 95.1502C113.247 100.413 107.408 105.883 101.364 111.114C100.919 111.499 96.067 116.433 97.6625 112.878C101.064 105.299 105.402 98.0778 111.124 92.0269C113.63 89.3776 116.334 86.9368 119.381 84.9273C120.031 84.4988 121.245 83.3671 119.959 84.6525C118.458 86.1541 117.103 87.784 115.795 89.4531C114.588 90.9931 117.131 87.7367 117.299 87.5445C118.764 85.863 120.218 84.1762 121.564 82.3968C121.749 82.1524 122.536 81.4295 121.825 81.3702C119.513 81.1776 116.969 81.7648 114.725 82.1944C114.225 82.2901 108.312 83.9298 108.825 82.9463C109.099 82.423 110.927 78.7201 111.631 80.3291C111.978 81.1239 111.428 82.2288 111.081 82.9174C110.687 83.6997 110.172 84.3832 109.621 85.0574C109.426 85.2955 108.778 85.8093 109.086 85.8093C109.721 85.8093 111.388 84.4716 111.978 84.2043C113.47 83.5277 115.492 83.0879 116.778 82.0353C119.207 80.0483 111.127 85.2122 109.317 87.7758C109.031 88.1809 110.221 87.3582 110.633 87.0817C112.22 86.0163 113.754 84.8801 115.361 83.8428C117.105 82.7169 118.893 81.6595 120.697 80.6328C120.894 80.5204 121.484 80.2492 121.347 80.4303C120.037 82.1619 118.215 83.5784 116.735 85.1586C115.244 86.7501 110.739 91.3898 112.57 90.205C114.854 88.7274 117.122 87.2956 119.497 85.9539C120.985 85.1131 122.484 84.2887 123.95 83.409C124.271 83.2164 125.25 82.7728 124.876 82.7728C124.154 82.7728 122.641 84.9211 122.316 85.2743C120.471 87.2814 118.762 89.4132 116.923 91.4196C115.033 93.481 121.076 87.6709 123.054 85.6936C123.07 85.6769 123.768 84.9859 123.69 85.202C122.905 87.3615 121.393 89.5981 120.234 91.5642C119.392 92.992 116.269 96.8397 117.472 95.6997C119.496 93.7827 121.246 91.5973 123.314 89.7134C123.938 89.1449 125.698 87.1478 126.683 87.0384C126.821 87.023 125.307 91.3857 125.266 91.4919C124.506 93.4791 123.98 96.6222 122.605 98.3024C121.323 99.8693 123.687 94.394 124.413 92.5041C125.465 89.7634 126.455 86.9992 127.478 84.2477C127.622 83.86 128.349 82.5363 127.478 82.9174C125.94 83.5905 124.612 84.6483 123.14 85.4478C123.002 85.5232 120.091 87.0267 120.147 86.46C120.216 85.7764 122.857 81.0128 122.591 80.893C121.878 80.5722 120.285 81.3163 119.656 81.5148C118.188 81.9772 113.809 82.9166 115.332 83.1343C116.312 83.2742 121.145 83.0362 121.145 81.6738C121.145 79.8039 114.323 83.3351 113.713 83.6404C113.272 83.8607 111.398 84.4763 111.37 85.202C111.342 85.928 114.435 85.1789 114.609 85.1442C115.275 85.0118 119.138 83.6059 117.154 84.9706C113.139 87.7335 109.385 90.8025 105.702 93.9934C103.285 96.0881 100.888 98.2096 98.5156 100.356C96.9873 101.738 101.996 98.1463 103.764 97.0878C106.492 95.4552 109.268 93.864 112.151 92.5186C113.743 91.7754 113.598 92.3611 113.105 93.9067C111.835 97.8949 109.75 101.521 107.452 104.997C106.006 107.185 104.492 109.358 102.81 111.374C102.354 111.921 101.249 113.547 101.249 112.834C101.249 112.387 101.762 112.1 102.058 111.764C104.121 109.424 106.408 107.276 108.796 105.272C113.097 101.663 117.744 98.1988 122.735 95.584C123.55 95.1575 122.623 96.0126 122.432 96.2925C118.93 101.411 115.196 106.263 110.98 110.824C108.86 113.117 107.466 114.502 105.326 116.695C105.21 116.814 102.415 120.233 101.711 120.339C101.566 120.361 101.83 120.069 101.914 119.948C102.607 118.949 103.418 118.071 104.256 117.187C106.503 114.817 108.906 112.581 111.428 110.506C113.553 108.758 115.792 107.2 118.195 105.865C119.156 105.331 118.972 105.171 118.065 105.894C113.194 109.773 108.946 114.435 104.372 118.647C102.368 120.492 100.33 122.407 98.0963 123.983C98.0653 124.005 96.9672 124.905 97.0118 124.257C97.2139 121.327 99.5269 118.124 101.162 115.885C104.137 111.81 107.686 108.203 111.746 105.214C115.09 102.753 105.716 110.942 102.434 113.485C101.896 113.902 99.6831 116.117 98.8193 116.117C98.4298 116.117 99.2919 115.49 99.5856 115.235C101.537 113.535 103.697 112.025 105.847 110.593C110.727 107.343 115.889 104.621 121.044 101.845C121.615 101.537 122.99 100.374 122.793 100.992C122.597 101.608 121.347 102.864 121.058 103.233C117.079 108.315 112.814 113.143 108.218 117.678C105.898 119.968 103.493 122.239 100.916 124.243C100.52 124.551 99.3704 125.274 99.5133 124.792C100.384 121.86 104.039 119.182 106.208 117.375C110.07 114.156 114.228 111.373 118.369 108.54C118.494 108.454 118.867 108.188 118.745 108.28C115.29 110.87 112.26 114.285 109.115 117.216C105.397 120.68 101.675 124.139 97.9517 127.598C96.2643 129.165 94.5068 131.056 92.5727 132.369C89.576 134.404 97.6354 127.14 100.554 124.995C104.358 122.2 108.412 119.964 112.701 118.025C114.302 117.301 113.899 117.33 113.091 118.531C110.505 122.377 108.087 126.29 105.21 129.94C103.801 131.728 102.3 133.589 100.554 135.073C99.2853 136.152 100.114 134.761 100.41 134.307C103.037 130.271 106.583 126.695 110.286 123.65C111.702 122.485 113.21 121.416 114.754 120.426C115.003 120.266 115.702 119.824 115.578 120.093C115.401 120.476 115.057 120.756 114.783 121.076C112.96 123.208 111.147 125.349 109.259 127.424C106.227 130.756 103.075 133.971 99.8459 137.112C98.4664 138.454 96.9239 140.195 95.2911 141.305C93.8394 142.292 97.7886 138.835 99.094 137.661C102.398 134.69 105.837 131.132 109.736 128.928C110.996 128.216 107.725 132.598 107.64 132.716C106.134 134.799 104.651 136.894 103.229 139.035C102.883 139.557 102.54 140.083 102.203 140.611C101.949 141.008 101.269 141.404 101.48 141.826C101.677 142.221 102.198 141.312 102.55 141.045C104.766 139.36 106.997 137.698 109.288 136.114C109.921 135.677 120.316 128.669 120.595 129.116C120.972 129.718 116.342 134.124 115.983 134.495C114.988 135.523 111.707 138.294 112.787 137.358C114.521 135.855 119.954 131.625 118.166 133.063C116.648 134.285 115.263 135.694 113.799 136.982C113.567 137.187 110.242 140.045 111.833 138.066C113.76 135.669 116.367 133.782 118.918 132.109C120.218 131.257 121.574 130.353 122.981 129.68C123.823 129.277 123.2 130.033 122.996 130.316C119.103 135.714 105.419 150.307 109.895 145.383C112.186 142.863 114.148 140.054 116.315 137.43C116.361 137.375 119.158 134.325 118.369 135.203C116.163 137.658 113.435 139.711 110.618 141.407C107.805 143.101 102.145 146.553 98.6313 144.949C95.0493 143.314 100.481 140.486 101.856 139.975C103.269 139.45 101.217 139.838 100.844 139.917C99.8898 140.119 99.0806 140.478 98.2409 140.958" stroke="#D9D9D9" stroke-width="3" stroke-linecap="round"/>
<path d="M101.203 100.607C99.9505 101.998 98.632 102.888 97.028 103.905C96.1148 104.484 95.0909 104.955 94.2064 105.567C93.869 105.801 95.1907 105.34 95.2629 105.297C96.6612 104.465 98.1015 103.646 99.3472 102.591C100.163 101.9 102.093 99.4092 101.692 100.401C101.003 102.106 99.8906 103.775 98.9736 105.361C98.1352 106.812 97.0333 109.309 95.5721 110.283C95.218 110.519 96.1736 109.678 96.4354 109.343C97.455 108.036 98.2311 106.538 99.1411 105.155C99.8823 104.028 98.3073 106.001 98.2907 106.018C96.2537 108.178 93.9938 110.106 91.8228 112.126C91.7298 112.212 90.5942 113.711 90.9596 112.937C93.1453 108.309 94.6331 103.253 95.9586 98.3265C95.9801 98.2469 96.8423 93.1764 97.4403 93.0568C97.6367 93.0175 96.48 97.7856 96.4611 97.8498C95.1147 102.44 93.8436 107.026 92.9308 111.726C92.6091 113.383 91.7509 115.916 91.9259 117.666C91.9338 117.745 92.0262 117.543 92.0805 117.485C92.6327 116.899 93.1407 116.293 93.6524 115.669C95.3976 113.538 97.6916 111.413 98.7803 108.84C99.041 108.224 99.048 107.627 98.3165 108.131C96.0387 109.702 94.1103 112.123 92.3124 114.187C91.8165 114.756 90.5677 116.649 90.9596 116.004C92.5534 113.378 94.0689 110.706 95.6623 108.08C96.1507 107.275 97.6821 104.902 97.1569 105.683C95.7473 107.781 94.2724 109.833 92.8664 111.932C92.3801 112.658 91.0746 114.906 91.6682 114.264C94.035 111.707 96.4752 109.211 99.2184 107.049C99.8096 106.583 101.354 105.174 101.164 105.902C100.729 107.571 99.2475 109.167 98.2263 110.502C98.197 110.54 96.513 112.767 96.6157 111.945C96.8869 109.776 97.805 107.567 98.4195 105.477" stroke="#D9D9D9" stroke-width="3" stroke-linecap="round"/>
<path d="M106.83 126.643C105.412 127.494 103.989 128.896 102.984 130.186C102.413 130.918 100.916 133.261 101.422 134.336C101.51 134.522 101.733 134.04 101.798 133.844C102.717 131.086 103.399 128.236 104.256 125.458C105.083 122.775 105.963 120.116 106.917 117.476C107.247 116.561 108.429 113.947 107.813 114.7C107.439 115.157 107.141 116.42 106.946 116.869C105.475 120.243 103.531 123.381 101.567 126.484C100.41 128.311 99.2206 130.116 98.0095 131.907C97.6645 132.417 97.4969 132.733 98.0963 132.196C101.749 128.92 104.584 124.67 108.044 121.178C108.831 120.384 110.647 117.949 110.647 119.066C110.647 121.321 109.331 124.195 108.551 126.195C106.546 131.331 99.1308 146.063 100.815 140.814C102.124 136.732 105.539 132.908 108.579 130.012C111.218 127.5 107.317 134.12 107.09 134.538C106.051 136.455 103.122 142.256 103.779 140.177C104.437 138.092 106.008 135.501 107.495 133.902C108.098 133.254 107.517 136.153 107.452 136.389C107.001 138.019 106.104 138.73 105.326 139.975C104.789 140.835 107.323 139.381 108.102 138.731C109.229 137.793 109.962 136.396 108.681 138.616C107.044 141.451 105.862 145.025 103.634 147.465C102.95 148.215 102.945 147.041 103.417 146.569C104.596 145.39 106.144 144.755 107.408 143.72C107.538 143.614 104.947 143.331 104.69 143.301C103.648 143.179 102.608 143.044 101.567 142.925C100.971 142.856 99.275 142.462 99.7736 142.795C101.772 144.127 105.062 144.721 107.336 145.224C108.757 145.538 110.193 145.819 111.63 146.048C111.935 146.097 112.741 146.295 112.556 146.048C111.314 144.393 110.575 141.99 110.315 139.989C109.32 132.343 115.679 126.256 115.679 118.748C115.679 118.658 115.71 118.343 115.535 118.343C114.78 118.343 115.074 119.784 114.942 120.527C113.812 126.875 112.131 133.22 109.924 139.281C109.595 140.184 108.652 142.566 109.664 140.192C112.089 134.506 114.603 128.86 117.024 123.173C118.238 120.321 119.734 117.194 119.525 114.006C119.284 110.317 117.816 116.153 117.443 116.941C116.288 119.385 114.853 121.701 113.279 123.896C112.555 124.905 110.528 127.863 110.763 126.643C111.016 125.326 112.05 123.681 112.585 122.537C114.474 118.496 116.364 114.459 117.993 110.304C118.66 108.601 120.387 103.417 120.046 105.214C118.79 111.839 116.638 118.343 113.785 124.445C112.723 126.717 111.533 128.948 110.098 131.01C109.989 131.166 109.326 132.206 109.49 131.357C110.483 126.23 112.86 121.245 114.609 116.348C114.755 115.939 116.216 112.77 115.028 114.425C112.231 118.321 109.025 122.046 105.876 125.66C102.883 129.094 106.619 122.766 107.018 122.045C108.158 119.981 109.499 118.036 110.633 115.972C110.768 115.726 111.141 114.978 111.067 115.249C109.69 120.296 106.795 124.907 103.793 129.13C102.99 130.261 102.113 131.562 101.118 132.557C100.421 133.254 101.376 130.601 101.581 129.636C103.135 122.319 104.574 114.81 107.119 107.759C107.269 107.344 107.649 106.4 107.871 105.937C107.965 105.742 108.065 105.234 108.218 105.388C108.533 105.702 107.181 109.165 107.119 109.35C106.046 112.545 102.16 121.753 102.637 118.416C103.533 112.138 105.98 105.586 108.478 99.8062C109.844 96.6461 111.893 93.7067 112.917 90.4074C112.953 90.2942 113.081 89.9709 113.076 90.0893C113.006 91.9523 112.582 93.8185 112.238 95.6418C111.835 97.7758 111.406 99.9044 111.052 102.047C110.939 102.734 110.572 104.739 110.907 104.13C112.488 101.255 113.984 98.3184 115.506 95.4105C115.591 95.2465 117.225 91.6148 117.082 91.6943C116.472 92.0329 115.831 93.0158 115.419 93.5018C113.87 95.3299 112.381 97.2154 110.994 99.17C110.487 99.8848 110.053 100.747 109.49 101.426C109.047 101.961 109.66 100.037 109.866 99.3724C110.997 95.7383 112.134 92.1114 113.192 88.4554C113.843 86.2055 112.681 90.9548 112.614 91.2461C112.304 92.5921 111.889 93.9856 111.688 95.3526C111.514 96.5386 112.818 93.2377 113.366 92.1715C115.34 88.3283 117.166 84.4263 119.511 80.7918C119.659 80.5626 119.944 79.4222 120.046 80.2857C120.359 82.9226 119.55 85.7145 119.352 88.3397C119.18 90.6181 120.231 86.6084 120.35 86.1708C120.467 85.7365 121.35 83.1592 120.624 82.9174C120.006 82.7113 121.641 82.0554 121.767 82.0064C123.415 81.3615 124.85 83.5671 125.96 84.5947C126.229 84.844 127.532 86.2337 127.334 85.1441C127.013 83.3807 126.072 81.7829 125.468 80.1122C125.133 79.1841 124.901 78.9119 123.892 79.0711C122.014 79.3676 120.021 79.5696 118.282 80.3725C116.811 81.0513 115.315 81.5896 113.742 81.9919C113.55 82.0408 110.839 82.4385 110.85 82.3968C110.936 82.0531 111.446 82.0132 111.732 81.804C112.966 80.9008 114.197 80.0757 115.592 79.4326C117.955 78.3442 120.752 77.4052 123.372 78.03C127.466 79.0067 127.211 82.161 126.293 85.5201C124.002 93.9008 119.369 101.296 117.284 109.74C117.039 110.732 116.483 113.74 116.778 112.762C118.201 108.055 119.609 103.351 120.957 98.6205C121.662 96.1453 122.049 92.6162 123.487 90.3785C123.592 90.216 123.685 96.4712 123.646 96.8854C123.027 103.61 121.222 110.097 120.219 116.753C120.112 117.469 119.844 119.617 119.844 118.893C119.844 115.114 120.026 111.351 120.364 107.585C120.6 104.952 120.985 102.344 121.29 99.7194C121.358 99.1255 121.712 97.4525 121.347 97.9264C121.039 98.3278 120.828 99.7554 120.754 100.038C119.368 105.324 117.759 110.563 115.925 115.712C113.998 121.122 111.806 126.409 109.201 131.531C109.024 131.879 105.724 139.227 104.603 139.194C104.475 139.19 104.506 138.956 104.473 138.833C104.294 138.169 104.167 137.492 104.01 136.823C103.148 133.149 102.358 129.456 101.827 125.718C101.049 120.248 101.121 114.818 101.35 109.321C101.358 109.114 101.5 107.244 101.248 107.759C99.2791 111.791 97.6618 116.031 95.884 120.151C95.3055 121.491 94.6532 122.861 94.25 124.272C94.242 124.3 93.9082 125.54 94.3368 125.486C95.1153 125.389 94.6676 123.951 94.7706 123.173C95.1462 120.336 95.603 117.476 96.419 114.729C96.9528 112.931 97.9022 110.568 97.9661 113.861C98.1051 121.015 97.3106 128.148 95.696 135.117C95.631 135.397 93.6768 140.692 95.2911 138.948C96.4988 137.644 97.2782 136.09 97.8649 134.423C98.2223 133.407 98.1106 136.486 98.1252 136.678C98.3347 139.431 98.3846 142.308 99.0217 145.007C99.4243 146.712 100.775 143.726 101.176 143.185C103.893 139.527 106.878 135.898 110.792 133.468C112.23 132.575 111.45 135.753 111.399 136.389C111.091 140.259 110.017 143.754 109.23 147.494C109.099 148.119 111.12 146.944 111.226 146.858C113.253 145.191 114.613 142.888 116.084 140.756C116.147 140.664 114.99 142.718 114.595 143.171C113.457 144.474 111.358 146.363 109.519 145.152C107.028 143.509 104.961 140.511 102.998 138.283C101.474 136.553 100.925 134.922 100.468 132.702C100.14 131.109 100.273 133.765 100.207 134.162C99.8316 136.435 98.864 139.729 97.1275 141.363C96.8601 141.615 92.7412 134.011 94.2066 133.685C95.542 133.388 95.8035 136.403 95.9129 134.654C96.0293 132.791 97.1978 131.467 97.8071 129.767C97.9374 129.403 98.5104 127.862 98.183 127.453C97.7709 126.938 97.8185 128.732 97.7782 129.391C97.6525 131.443 97.3876 134.017 98.3421 135.926C99.4074 138.057 97.233 131.282 96.419 129.044C95.9967 127.882 95.5854 126.68 95.0598 125.559C94.7895 124.982 94.5392 126.082 94.4091 126.325C94.2506 126.621 92.4917 129.738 92.6595 129.738C94.217 129.738 93.9239 123.073 94.8862 127.511C95.6795 131.169 95.8749 135.059 96.9395 138.645C97.1984 139.517 97.1998 138.073 97.1998 137.835" stroke="#D9D9D9" stroke-width="3" stroke-linecap="round"/>
<path d="M121.843 73.9366C120.766 73.9366 119.567 73.7736 118.545 74.1685C116.807 74.8398 119.454 74.0361 119.936 73.4857C120.604 72.7226 119.186 73.5337 119.897 73.6918C120.85 73.9035 122.222 73.4728 123.235 73.4728" stroke="white" stroke-width="3" stroke-linecap="round"/>
<path d="M120.915 75.3281C122.225 75.3281 123.94 74.6227 124.858 73.7047" stroke="black" stroke-width="3" stroke-linecap="round"/>
<path d="M125.554 74.6324C124.83 75.3561 124.488 75.4748 124.639 76.6809C124.704 77.205 125.294 76.9092 125.425 76.5908C125.654 76.0347 125.46 75.1391 124.974 74.7612C124.719 74.5629 124.204 74.5916 123.904 74.6581C123.626 74.72 122.212 75.5451 122.217 75.5471C122.325 75.5903 121.012 76.28 120.58 76.8356C120.321 77.1691 120.647 77.5114 120.336 76.5779C120.107 75.8908 120.005 74.9144 119.421 74.4133C118.72 73.8124 116.474 77.1186 116.187 77.7503C115.933 78.3081 117.06 77.327 117.179 77.0288C117.677 75.7826 117.438 73.3791 116.638 72.2874C116.325 71.8609 115.329 74.2142 115.246 74.3876C114.861 75.194 114.377 76.4449 115.375 77.0546C118.067 78.6996 119.499 73.9391 119.24 72.1586C119.063 70.9421 118.137 73.6092 118.132 73.6274C117.797 74.9178 116.598 79.2676 118.235 80.1468C120.177 81.1893 122.779 76.7772 123.441 75.6631C123.596 75.4018 125.125 71.4794 124.523 72.004C121.985 74.2165 120.312 78.7975 119.55 81.9506C118.988 84.2735 120.972 84.833 122.874 84.0379C124.358 83.4173 126.284 81.8847 125.966 80.018C125.844 79.3032 125.06 79.0784 124.626 79.6572C123.623 80.994 122.961 83.9335 123.75 85.4809C124.368 86.6942 126.035 85.0872 126.533 84.579C127.515 83.5757 128.971 81.8357 128.62 80.3014C128.478 79.6799 127.646 79.9854 127.461 80.456C126.835 82.0428 127.07 85.3605 128.388 86.5889C129.41 87.5408 130.189 85.9574 130.424 85.1459C131.114 82.7609 131.07 79.7934 130.527 77.3767C130.136 75.6351 129.008 75.7884 127.615 76.4104C126.067 77.1017 124.23 78.78 126.404 80.0437C127.168 80.4881 129.562 81.3507 130.411 80.7137C132.634 79.0466 128.57 72.5658 127.68 71.115C127.203 70.3388 124.72 66.4829 123.557 68.551C122.442 70.5319 121.077 74.8848 122.23 77.0804C122.978 78.5058 124.706 77.9098 125.67 77.1577C126.508 76.5035 128.043 75.0864 126.932 73.9753C125.887 72.9303 123.43 75.4797 122.848 75.9723C122.252 76.4762 117.927 79.447 119.73 80.4303C120.953 81.0975 123.246 81.6179 124.265 80.353C125.044 79.3868 125.322 75.5433 125.322 76.784C125.322 78.8787 124.55 82.1182 125.67 84.0121C126.299 85.0769 130.224 77.7411 129.135 78.1369C127.68 78.6662 128.464 82.0961 127.319 79.683C125.953 76.804 124.77 73.878 123.479 70.9732C122.876 69.6153 121.914 69.9697 120.58 70.2775C118.923 70.66 115.909 71.4342 115.272 73.3439C115.028 74.0752 115.702 74.3014 116.277 74.0139C117.083 73.6109 117.926 72.3349 117.772 71.4113C117.606 70.42 116.664 73.9885 116.586 74.2201C116.038 75.8458 113.941 79.1136 114.898 80.8683C115.482 81.938 117.157 82.1927 118.235 82.3758C119.906 82.6595 121.612 82.6873 123.299 82.7623C124.198 82.8023 125.243 83.2156 126.121 82.8396C126.685 82.5976 126.889 81.7 127.061 82.6979C127.228 83.6666 127.51 85.4994 126.829 86.3312C125.857 87.5192 123.386 86.8548 122.178 86.576C119.162 85.8799 117.219 83.8399 114.989 81.8218C114.343 81.2379 114.937 79.445 115.22 80.121C115.492 80.7707 116.184 81.9634 115.994 82.6979C115.812 83.3985 115.836 83.698 116.277 84.3728C117.598 86.3926 119.861 86.6017 122.075 86.2797C123.05 86.1379 123.912 86.3082 124.626 85.4809C125.525 84.4399 126.411 83.9644 127.538 83.2133C129.553 81.8699 129.149 79.313 128.234 77.3638C127.955 76.7704 123.235 69.5774 122.307 71.4886C121.504 73.1422 124.196 76.6309 125.605 74.7097C126.177 73.9305 126.721 72.9693 126.932 72.0168C126.959 71.8976 127.317 72.5579 127.345 72.5966C127.859 73.3127 128.449 73.9617 129.02 74.6324C130.119 75.9259 130.803 77.3054 130.991 79.0001C131.093 79.9194 131.73 83.6955 130.772 84.3342C129.532 85.161 127.735 84.8703 126.456 84.3728C124.972 83.796 123.248 83.821 121.676 83.69C120.786 83.6159 122.731 84.9608 122.99 85.1588C123.807 85.7855 124.175 85.9358 124.806 85.0428C126.8 82.2238 128.694 78.8613 129.561 75.5085C130.05 73.6134 129.774 69.3314 126.687 69.5688C125.554 69.656 124.444 70.2375 123.479 70.78C122.876 71.1193 122.612 70.1646 122.32 69.775C121.802 69.0853 121.466 69.4345 120.748 69.9425C119.704 70.6811 118.785 71.5929 117.797 72.4034C117.154 72.9318 116.085 73.5125 115.646 74.2587C115.39 74.6931 115.869 75.198 116.045 75.56C116.373 76.2351 116.477 77.0317 116.277 77.7503C115.866 79.2297 115.344 80.6914 116.045 82.0537C116.454 82.8483 116.851 83.4245 117.669 83.8575C117.806 83.9305 119.067 84.365 118.545 84.5532C117.016 85.1037 115.122 84.5774 113.958 83.4452C112.682 82.2047 112.604 80.1031 112.85 78.4461C112.943 77.8158 113.238 77.1699 113.262 76.5392C113.305 75.4254 113.442 78.0518 113.442 78.0596C113.576 81.0468 112.776 84.2873 113.365 87.2331C113.551 88.162 114.115 88.3349 114.937 88.4958C118.175 89.1293 121.184 88.8181 124.446 88.7793C127.222 88.7462 128.987 88.4039 131.12 86.6405C133.33 84.813 131.803 81.7806 130.836 79.5026C129.801 77.0645 126.546 72.6939 123.415 73.1635C121.588 73.4376 119.982 75.2417 118.699 76.4361C117.585 77.4738 116.311 79.149 116.895 80.791C117.222 81.7068 118.08 82.5175 119.06 82.5175C119.173 82.5175 117.935 83.1165 117.669 83.3163C117.199 83.6683 116.115 84.4027 116.045 85.0686C116.015 85.3568 115.773 86.246 115.53 86.4086C114.864 86.8527 112.314 84.4486 114.422 85.352C115.077 85.6329 115.858 85.8427 116.457 86.2282C116.775 86.4326 116.898 86.7708 117.205 86.9239" stroke="#D9D9D9" stroke-width="3" stroke-linecap="round"/>
<path d="M103.522 143.975C103.419 144.386 102.138 144.98 101.847 145.148C100.562 145.889 99.1089 146.607 98.0587 147.686C97.675 148.08 97.9335 148.965 98.0844 148.691C98.9201 147.172 98.7973 144.435 98.4194 142.79C97.9009 140.533 93.4952 147.916 94.1161 148.33C94.7737 148.769 96.6434 147.512 97.1181 147.209C97.8429 146.747 98.8035 145.013 97.801 146.256C97.5055 146.622 94.4075 151.658 97.0408 150.868C98.1714 150.529 99.2029 148.382 99.7079 147.428C99.7645 147.321 99.925 146.996 99.8754 147.106C99.371 148.227 98.8874 149.358 98.4194 150.495C98.2797 150.834 96.4133 155.647 97.5948 154.36C99.3609 152.436 101.037 150.468 102.542 148.33C102.669 148.151 104.113 145.717 103.754 146.398C103.154 147.534 102.523 148.649 101.898 149.773" stroke="#D9D9D9" stroke-width="3" stroke-linecap="round"/>
<path d="M103.522 145.135C103.522 146.775 103.532 148.416 103.522 150.057C103.519 150.46 102.945 154.161 103.754 152.917C105.428 150.341 107.046 147.314 108.057 144.413C108.165 144.105 108.354 143.219 108.108 143.434C106.512 144.831 105.086 146.583 103.754 148.214C102.346 149.937 100.774 151.769 99.7337 153.755C99.3181 154.548 100.325 153.817 100.533 153.69C101.348 153.192 102.345 152.557 102.916 151.757C103.451 151.009 101.594 153.039 100.971 153.716C100.057 154.709 98.2908 156.94 100.429 154.669C100.724 154.356 104.729 150.206 105.094 150.752C105.355 151.145 104.418 153.413 104.346 153.664C103.852 155.408 103.335 157.154 102.929 158.921C102.709 159.88 103.247 158.621 103.316 158.509C104.363 156.789 105.592 155.175 106.794 153.561C107.419 152.723 108.115 151.419 108.933 150.727C109.57 150.188 108.406 152.31 108.173 153.11C108.165 153.138 107.627 154.78 108.005 154.528C108.817 153.987 109.507 152.974 110.093 152.221C110.527 151.662 111.571 149.829 111.33 150.495C110.925 151.608 110.2 152.706 109.642 153.742C108.954 155.016 108.241 156.276 107.451 157.491C106.945 158.269 108.418 155.905 108.933 155.133C110.774 152.371 112.813 149.752 114.654 146.99" stroke="#D9D9D9" stroke-width="3" stroke-linecap="round"/>
<path d="M117.669 140.033C117.52 141.663 115.112 143.463 115.388 144.98C115.552 145.88 116.826 143.816 117.359 143.073C118.71 141.191 120.297 139.522 122.139 138.113C122.715 137.673 121.485 139.406 121.122 140.033C118.723 144.17 116.252 148.39 113.327 152.183C111.535 154.505 116.503 147.229 118.416 145.006C119.43 143.828 120.543 142.745 121.624 141.63C122.12 141.118 123.045 140.364 123.273 139.633C123.328 139.457 122.878 139.577 122.719 139.672C121.186 140.583 119.799 141.885 118.442 143.022C116.713 144.47 111.643 148.938 113.455 147.596C116.008 145.705 118.452 143.65 121.018 141.759C121.111 141.691 122.509 140.368 122.796 140.445C123.265 140.57 122.248 143.969 122.23 144.04C121.684 146.087 121.041 148.107 120.426 150.134C120.129 151.112 119.343 154.04 119.395 153.02C119.559 149.786 121.804 146.3 123.028 143.37C123.105 143.187 123.649 142.187 123.595 141.862C123.571 141.714 123.325 141.999 123.209 142.094C119.113 145.44 127.797 138.388 121.56 143.46C117.991 146.361 114.394 149.445 110.531 151.951C109.816 152.415 112.08 149.321 112.322 149C112.979 148.127 115.401 146.243 114.319 146.398C113.926 146.454 113.326 146.964 113.069 147.145C110.994 148.609 108.985 150.163 106.91 151.629C105.874 152.361 104.821 153.069 103.779 153.793C103.432 154.034 103.138 154.214 103.599 153.69C105.459 151.573 107.619 149.723 109.551 147.673C110.742 146.41 108.755 147.903 108.469 148.124C107.034 149.232 105.181 151.433 103.367 151.886C103.061 151.963 103.42 151.247 103.547 150.959C104.166 149.564 105.089 148.254 105.97 147.016C107.218 145.261 107.265 145.665 107.116 147.415C107.021 148.545 106.489 151.281 108.083 151.629C110.22 152.095 113.181 151.437 115.117 150.495C115.941 150.094 115.65 149.867 115.117 150.521C114.757 150.964 113.891 152.37 115.156 151.551C116.207 150.871 117.529 149.216 117.565 147.892C117.659 144.534 112.891 160.492 114.009 157.323C114.656 155.49 116.361 153.773 117.385 152.144C119.423 148.903 121.308 145.533 123.093 142.146C123.773 140.855 125.683 136.993 124.703 138.074C123.344 139.575 122.527 141.908 121.444 143.64C120.833 144.618 120.915 142.679 120.915 142.3C120.915 141.102 120.898 139.637 121.482 138.551C121.694 138.158 120.423 140.995 120.297 141.27C119.276 143.502 116.587 150.313 117.127 147.918C117.538 146.097 118.107 144.247 118.777 142.507C118.829 142.369 119.087 141.909 118.738 142.223C117.277 143.538 116.063 145.184 114.744 146.63C112.899 148.651 111.004 150.576 108.83 152.247C107.744 153.082 106.237 154.4 104.887 154.85C104.759 154.892 104.47 154.188 104.308 154.051C102.425 152.458 99.4154 151.846 97.1826 150.984C93.892 149.715 92.1086 148.86 92.2866 145.122C92.2967 144.909 92.2079 142.98 92.6731 143.099C95.1622 143.739 97.5315 144.134 100.12 144.194C101.492 144.226 102.144 143.902 101.666 145.302C101.441 145.963 101.3 146.644 101.151 147.325C101.009 147.977 101.037 149.88 100.739 149.284C100.365 148.537 100.908 146.69 101.074 145.934C101.291 144.94 100.69 147.074 100.558 147.351C100.126 148.259 99.7424 149.185 101.177 148.91C103.985 148.372 106.653 146.976 109.371 146.114C110.557 145.738 111.749 145.403 112.901 144.929C112.912 144.924 114.284 144.26 114.138 144.362C113.213 145.01 112.098 145.449 111.329 146.295C109.652 148.14 112.815 145.248 113.03 145.045C115.081 143.115 117.362 141.311 119.189 139.157C119.884 138.337 119.199 139.523 119.047 139.827C118.045 141.832 119.388 139.823 119.988 139.105C120.589 138.385 122.107 136.036 122.307 138.087C122.333 138.352 122.568 140.589 122.719 140.033C122.781 139.805 123.015 138.444 122.861 138.564C122.393 138.928 121.953 139.346 121.611 139.801" stroke="#D9D9D9" stroke-width="3" stroke-linecap="round"/>
<path d="M129.032 132.38C127.756 132.521 125.962 135.199 125.322 136.142C124.556 137.269 123.761 138.14 122.809 139.092C122.121 139.781 124.195 136.801 124.368 136.477C124.517 136.199 127.432 130.524 126.468 130.705C125.43 130.899 124.089 133.64 123.518 134.364C123.432 134.473 121.192 137.224 122.126 137.224C122.857 137.224 123.558 136.917 124.162 136.554" stroke="#D9D9D9" stroke-width="3" stroke-linecap="round"/>
<path d="M103.29 153.02C103.918 153.099 102.068 155.149 101.924 155.314C100.432 157.018 101.853 157.199 103.006 155.752C103.028 155.725 103.899 154.372 103.625 154.45C103.233 154.562 102.643 155.529 102.349 155.803C101.426 156.665 100.645 157.288 101.898 156.035" stroke="#D9D9D9" stroke-width="3" stroke-linecap="round"/>
<path d="M113 47C130.504 47 147.292 53.9536 159.669 66.331C172.046 78.7084 179 95.4957 179 113C179 130.504 172.046 147.292 159.669 159.669C147.292 172.046 130.504 179 113 179C95.4957 179 78.7084 172.046 66.331 159.669C53.9535 147.292 47 130.504 47 113C47 95.4957 53.9535 78.7084 66.331 66.331C78.7084 53.9536 95.4957 47 113 47ZM122.899 87.5211C127.802 87.5211 131.78 84.1176 131.78 79.0737C131.78 74.0298 127.792 70.6263 122.899 70.6263C117.997 70.6263 114.037 74.0298 114.037 79.0737C114.037 84.1176 117.997 87.5211 122.899 87.5211ZM124.625 140.572C124.625 139.563 124.973 136.942 124.775 135.453L117.026 144.371C115.423 146.059 113.415 147.228 112.472 146.917C112.044 146.759 111.687 146.455 111.464 146.057C111.241 145.66 111.167 145.195 111.256 144.748L124.172 103.945C125.228 98.7686 122.324 94.0452 116.168 93.4418C109.672 93.4418 100.112 100.032 94.2951 108.394C94.2951 109.394 94.1065 111.883 94.3045 113.372L102.045 104.444C103.648 102.775 105.514 101.597 106.457 101.918C106.922 102.084 107.302 102.426 107.517 102.871C107.732 103.315 107.765 103.826 107.607 104.293L94.8042 144.899C93.324 149.651 96.1241 154.308 102.912 155.364C112.906 155.364 118.808 148.934 124.634 140.572H124.625Z" fill="black"/>
</svg>
