<svg width="225" height="225" viewBox="0 0 225 225" fill="none" xmlns="http://www.w3.org/2000/svg">
<path d="M225 112.5C225 174.632 174.632 225 112.5 225C50.368 225 0 174.632 0 112.5C0 50.368 50.368 0 112.5 0C174.632 0 225 50.368 225 112.5Z" fill="url(#paint0_linear_4_243)"/>
<rect x="48" y="53" width="87.0435" height="87.2667" fill="#D9D9D9"/>
<rect x="90.9565" y="84.7333" width="87.0435" height="87.2667" fill="#D9D9D9"/>
<path d="M90.5 140.5H48V53.5H135V85H178V172H90.5V140.5Z" stroke="black" stroke-width="4"/>
<path d="M90 140.5V84.6019H135.5" stroke="black" stroke-width="4"/>
<path d="M90 140.5H135V83" stroke="black" stroke-width="4"/>
<path d="M90.5 127L124 84" stroke="black" stroke-width="4"/>
<path d="M90 114L114 84" stroke="black" stroke-width="4"/>
<path d="M90 102L104 84" stroke="black" stroke-width="4"/>
<path d="M91 140L134 86" stroke="black" stroke-width="4"/>
<path d="M101 141L135 98" stroke="black" stroke-width="4"/>
<path d="M112 141L135 112" stroke="black" stroke-width="4"/>
<path d="M124 140.5L135.5 126" stroke="black" stroke-width="4"/>
<defs>
<linearGradient id="paint0_linear_4_243" x1="118" y1="-4" x2="109.5" y2="279.5" gradientUnits="userSpaceOnUse">
<stop offset="0.760417" stop-color="#54AED5"/>
<stop offset="1" stop-color="#A8CFEC" stop-opacity="0"/>
</linearGradient>
</defs>
</svg>
