<svg width="30" height="30" viewBox="0 0 30 30" fill="none" xmlns="http://www.w3.org/2000/svg">
<path d="M9.49999 9.49999H8V8H9.49999V9.49999ZM19.5 19.5H18V18H19.5V19.5ZM17 17H15.5V15.5H17V17ZM20.5 20.5H22V22H20.5V20.5ZM20.5 17V15.5H22V17H20.5ZM19.5 14.5H18V13H19.5V14.5ZM14.5 14.5H13L13 13H14.5V14.5ZM15.5 12V10.5H17V12H15.5ZM20.5 12V10.5H22V12H20.5ZM19.5 9.49999H18V8H19.5V9.49999ZM14.5 9.49999H13V8H14.5V9.49999ZM12 10.5L12 12H10.5V10.5H12ZM8 13H9.49999V14.5H8V13ZM10.5 17V15.5H12V17H10.5ZM8 18H9.49999V19.5H8V18ZM10.5 22V20.5H12V22H10.5ZM14.5 19.5H13V18H14.5V19.5ZM15.5 22V20.5H17V22H15.5Z" fill="url(#paint0_linear_30_155)" stroke="black"/>
<defs>
<linearGradient id="paint0_linear_30_155" x1="0.336928" y1="-27.8998" x2="-10.2696" y2="-38.5063" gradientUnits="userSpaceOnUse">
<stop stop-color="#FAFAFA" stop-opacity="0"/>
<stop offset="1"/>
</linearGradient>
</defs>
</svg>
