<svg width="225" height="225" viewBox="0 0 225 225" fill="none" xmlns="http://www.w3.org/2000/svg">
<path d="M225 112.5C225 174.632 174.632 225 112.5 225C50.368 225 0 174.632 0 112.5C0 50.368 50.368 0 112.5 0C174.632 0 225 50.368 225 112.5Z" fill="url(#paint0_linear_4_68)"/>
<path d="M126 51.5H45.5V132H95.5V173.5H180.5V92H126V51.5Z" fill="#D9D9D9" stroke="black" stroke-width="4"/>
<path d="M45.5 83.5L75 51.5M75 132L126 83.5" stroke="black" stroke-width="4"/>
<path d="M96 172.5L180 93" stroke="black" stroke-width="4"/>
<path d="M126 174L181 119.5" stroke="black" stroke-width="4"/>
<path d="M158 172.5L180.5 146.5" stroke="black" stroke-width="4"/>
<path d="M96 143.5L150 92" stroke="black" stroke-width="4"/>
<path d="M45 108L102.5 51.5" stroke="black" stroke-width="4"/>
<path d="M46 131.5L125.5 51.5" stroke="black" stroke-width="4"/>
<defs>
<linearGradient id="paint0_linear_4_68" x1="118" y1="-4" x2="109.5" y2="279.5" gradientUnits="userSpaceOnUse">
<stop offset="0.760417" stop-color="#54AED5"/>
<stop offset="1" stop-color="#A8CFEC" stop-opacity="0"/>
</linearGradient>
</defs>
</svg>
