<svg width="225" height="225" viewBox="0 0 225 225" fill="none" xmlns="http://www.w3.org/2000/svg">
<path d="M225 112.5C225 174.632 174.632 225 112.5 225C50.368 225 0 174.632 0 112.5C0 50.368 50.368 0 112.5 0C174.632 0 225 50.368 225 112.5Z" fill="url(#paint0_linear_4_70)"/>
<path d="M128 42.5L49.5 162.5V172.5L52 180L56 185.5L60.5 188.5L71 190.5L80 185.5L86.5 180L157 70.5L163.5 60.5L165.5 47.5L159.5 39L150 34.5H140L128 42.5Z" fill="#D9D9D9"/>
<g filter="url(#filter0_d_4_70)">
<line x1="68.3359" y1="168.891" x2="146.336" y2="51.8906" stroke="black" stroke-width="4"/>
</g>
<line x1="87.74" y1="178.186" x2="160.74" y2="65.186" stroke="black" stroke-width="3" stroke-dasharray="15 15"/>
<line x1="50.7455" y1="162.178" x2="128.745" y2="43.1777" stroke="black" stroke-width="3" stroke-dasharray="15 15"/>
<path d="M51 162C43 181.5 68 207 90 175" stroke="black" stroke-width="3" stroke-dasharray="12 12"/>
<g filter="url(#filter1_d_4_70)">
<path d="M165 56.5C169 36.5 145.615 23.132 127 45" stroke="black" stroke-width="3" stroke-dasharray="10 10"/>
</g>
<defs>
<filter id="filter0_d_4_70" x="62.6718" y="50.7812" width="89.3282" height="127.219" filterUnits="userSpaceOnUse" color-interpolation-filters="sRGB">
<feFlood flood-opacity="0" result="BackgroundImageFix"/>
<feColorMatrix in="SourceAlpha" type="matrix" values="0 0 0 0 0 0 0 0 0 0 0 0 0 0 0 0 0 0 127 0" result="hardAlpha"/>
<feOffset dy="4"/>
<feGaussianBlur stdDeviation="2"/>
<feComposite in2="hardAlpha" operator="out"/>
<feColorMatrix type="matrix" values="0 0 0 0 0 0 0 0 0 0 0 0 0 0 0 0 0 0 0.25 0"/>
<feBlend mode="normal" in2="BackgroundImageFix" result="effect1_dropShadow_4_70"/>
<feBlend mode="normal" in="SourceGraphic" in2="effect1_dropShadow_4_70" result="shape"/>
</filter>
<filter id="filter1_d_4_70" x="121.858" y="32.2519" width="49.0938" height="32.5423" filterUnits="userSpaceOnUse" color-interpolation-filters="sRGB">
<feFlood flood-opacity="0" result="BackgroundImageFix"/>
<feColorMatrix in="SourceAlpha" type="matrix" values="0 0 0 0 0 0 0 0 0 0 0 0 0 0 0 0 0 0 127 0" result="hardAlpha"/>
<feOffset dy="4"/>
<feGaussianBlur stdDeviation="2"/>
<feComposite in2="hardAlpha" operator="out"/>
<feColorMatrix type="matrix" values="0 0 0 0 0 0 0 0 0 0 0 0 0 0 0 0 0 0 0.25 0"/>
<feBlend mode="normal" in2="BackgroundImageFix" result="effect1_dropShadow_4_70"/>
<feBlend mode="normal" in="SourceGraphic" in2="effect1_dropShadow_4_70" result="shape"/>
</filter>
<linearGradient id="paint0_linear_4_70" x1="118" y1="-4" x2="109.5" y2="279.5" gradientUnits="userSpaceOnUse">
<stop offset="0.760417" stop-color="#54AED5"/>
<stop offset="1" stop-color="#A8CFEC" stop-opacity="0"/>
</linearGradient>
</defs>
</svg>
