<svg width="225" height="225" viewBox="0 0 225 225" fill="none" xmlns="http://www.w3.org/2000/svg">
<path d="M225 112.5C225 174.632 174.632 225 112.5 225C50.368 225 0 174.632 0 112.5C0 50.368 50.368 0 112.5 0C174.632 0 225 50.368 225 112.5Z" fill="#54AED5"/>
<g filter="url(#filter0_d_16_34)">
<path d="M49 88H139V178H49V88Z" fill="#D9D9D9"/>
<path d="M51 90H137V176H51V90Z" stroke="black" stroke-width="4"/>
</g>
<path d="M137 136H88V90.5" stroke="black" stroke-width="5" stroke-dasharray="4 4"/>
<path d="M136.874 68.1331L155.562 65.5652C158.591 62.863 162.41 61.2415 166.306 61.0038C170.201 60.766 173.908 61.9282 176.732 64.2733C179.556 66.6183 181.306 69.9858 181.653 73.7468C182.001 77.5077 180.923 81.4049 178.62 84.7103C176.318 88.0156 172.949 90.5032 169.142 91.7083C165.336 92.9134 161.352 92.7536 157.936 91.2587C154.519 89.7639 151.903 87.0362 150.577 83.5852C149.25 80.1342 149.304 76.1959 150.727 72.506L134.784 74.7026L120.006 121.105C119.745 121.924 119.173 122.64 118.415 123.096C117.657 123.552 116.775 123.71 115.964 123.536C115.153 123.362 114.478 122.87 114.089 122.168C113.7 121.466 113.628 120.612 113.889 119.793L134.93 53.7354C131.051 54.5059 127.161 53.884 123.989 51.9859C120.816 50.0879 118.577 47.0434 117.689 43.4213C116.802 39.7992 117.327 35.8471 119.166 32.3033C121.005 28.7595 124.033 25.8663 127.684 24.1642C131.335 22.4621 135.359 22.0675 139.005 23.0541C142.651 24.0406 145.669 26.3409 147.496 29.5253C149.322 32.7096 149.832 36.5602 148.931 40.3578C148.029 44.1553 145.777 47.6402 142.596 50.1613L136.87 68.1285L136.874 68.1331ZM118.452 76.9351L82.037 81.9247C81.1855 82.0415 80.356 81.8242 79.7309 81.3206C79.1059 80.817 78.7365 80.0684 78.704 79.2394C78.6715 78.4105 78.9786 77.569 79.5577 76.9003C80.1368 76.2315 80.9405 75.7902 81.792 75.6734L120.542 70.3656L118.448 76.9304L118.452 76.9351ZM175.297 75.425C175.264 74.1832 174.978 72.9854 174.457 71.901C173.936 70.8165 173.189 69.8671 172.259 69.1076C171.33 68.3481 170.237 67.7938 169.043 67.4767C167.85 67.1596 166.58 67.0861 165.306 67.2604C164.033 67.4347 162.782 67.8533 161.625 68.4921C160.469 69.1308 159.43 69.9769 158.569 70.9813C157.709 71.9858 157.043 73.1286 156.611 74.3435C156.179 75.5584 155.989 76.8213 156.053 78.0589C156.207 80.4976 157.337 82.6827 159.201 84.1467C161.066 85.6107 163.518 86.2373 166.031 85.8926C168.545 85.5479 170.921 84.2591 172.652 82.3021C174.383 80.345 175.331 77.875 175.293 75.4204L175.297 75.425ZM136.272 29.0296C135.06 28.7394 133.775 28.6972 132.495 28.9057C131.214 29.1141 129.963 29.569 128.815 30.2435C127.667 30.918 126.645 31.7986 125.809 32.8335C124.973 33.8684 124.34 35.0368 123.947 36.2699C123.554 37.5031 123.409 38.7762 123.521 40.0144C123.633 41.2526 123.999 42.431 124.598 43.4802C125.197 44.5295 126.017 45.4285 127.009 46.1245C128.001 46.8205 129.146 47.2993 130.377 47.5329C132.788 47.9909 135.384 47.4802 137.609 46.1103C139.833 44.7403 141.51 42.6198 142.28 40.2023C143.051 37.7848 142.853 35.2622 141.73 33.1743C140.607 31.0863 138.648 29.5987 136.272 29.0296Z" fill="black"/>
<path d="M51 108.5L70.5 90.5" stroke="black" stroke-width="2"/>
<path d="M51.5 124.5L84.5 90.5" stroke="black" stroke-width="2"/>
<path d="M51 148L87.5 111" stroke="black" stroke-width="2"/>
<path d="M51 176L88.5 135.5" stroke="black" stroke-width="2"/>
<path d="M74 176L108.5 136.5" stroke="black" stroke-width="2"/>
<path d="M95.5 175.5L128 136.5" stroke="black" stroke-width="2"/>
<path d="M117.5 175.5L138 149.5" stroke="black" stroke-width="2"/>
<defs>
<filter id="filter0_d_16_34" x="45" y="88" width="98" height="98" filterUnits="userSpaceOnUse" color-interpolation-filters="sRGB">
<feFlood flood-opacity="0" result="BackgroundImageFix"/>
<feColorMatrix in="SourceAlpha" type="matrix" values="0 0 0 0 0 0 0 0 0 0 0 0 0 0 0 0 0 0 127 0" result="hardAlpha"/>
<feOffset dy="4"/>
<feGaussianBlur stdDeviation="2"/>
<feComposite in2="hardAlpha" operator="out"/>
<feColorMatrix type="matrix" values="0 0 0 0 0 0 0 0 0 0 0 0 0 0 0 0 0 0 0.25 0"/>
<feBlend mode="normal" in2="BackgroundImageFix" result="effect1_dropShadow_16_34"/>
<feBlend mode="normal" in="SourceGraphic" in2="effect1_dropShadow_16_34" result="shape"/>
</filter>
</defs>
</svg>
