<svg width="23" height="23" viewBox="0 0 23 23" fill="none" xmlns="http://www.w3.org/2000/svg">
<g clip-path="url(#clip0_30_144)">
<g clip-path="url(#clip1_30_144)">
<path d="M11.5 0.71875C5.14625 0.71875 0 5.54875 0 11.5C0 17.4513 5.14625 22.2813 11.5 22.2813C18.2419 22.2813 12.995 18.2131 15.5106 15.7406C16.6031 14.6625 17.8538 14.49 19.0181 14.49C19.55 14.49 20.0675 14.5331 20.5419 14.5331C21.965 14.5331 23.0144 14.2025 23.0144 11.5144C23 5.54875 17.8538 0.71875 11.5 0.71875ZM21.0594 12.6788C20.9875 12.6931 20.8294 12.7075 20.5275 12.7075C20.3263 12.7075 20.1106 12.7075 19.8806 12.6931C19.6075 12.6931 19.32 12.6788 19.0038 12.6788C17.7244 12.6788 15.8556 12.8656 14.2312 14.4469C12.5494 16.1144 12.9375 18.1844 13.1675 19.435C13.2106 19.6938 13.2825 20.0675 13.2969 20.2975C13.0669 20.3694 12.5494 20.4844 11.4856 20.4844C6.13813 20.4844 1.7825 16.4594 1.7825 11.5C1.7825 6.54063 6.1525 2.51563 11.5 2.51563C16.8475 2.51563 21.2031 6.54063 21.2031 11.5C21.2031 12.2188 21.1169 12.5638 21.0594 12.6788Z" fill="black"/>
<path d="M8.48125 13.6131C7.00063 13.6131 5.8075 14.7631 5.8075 16.1862C5.8075 17.6094 7.015 18.7594 8.48125 18.7594C9.9475 18.7594 11.155 17.6094 11.155 16.1862C11.155 14.7631 9.9475 13.6131 8.48125 13.6131ZM8.48125 16.9912C7.97813 16.9912 7.56125 16.6319 7.56125 16.1862C7.56125 15.7406 7.97813 15.3812 8.48125 15.3812C8.98438 15.3812 9.40125 15.7406 9.40125 16.1862C9.40125 16.6319 8.98438 16.9912 8.48125 16.9912ZM8.19375 10.3931C8.19375 8.97 6.98625 7.82 5.52 7.82C4.05375 7.82 2.84625 8.97 2.84625 10.3931C2.84625 11.8162 4.05375 12.9662 5.52 12.9662C6.98625 12.9662 8.19375 11.8162 8.19375 10.3931ZM5.52 11.1981C5.01688 11.1981 4.6 10.8387 4.6 10.3931C4.6 9.9475 5.01688 9.58812 5.52 9.58812C6.02313 9.58812 6.44 9.9475 6.44 10.3931C6.44 10.8387 6.02313 11.1981 5.52 11.1981ZM10.5944 3.59375C9.11375 3.59375 7.92063 4.74375 7.92063 6.16687C7.92063 7.59 9.12813 8.74 10.5944 8.74C12.0606 8.74 13.2681 7.59 13.2681 6.16687C13.2681 4.74375 12.0606 3.59375 10.5944 3.59375ZM10.5944 6.97187C10.0913 6.97187 9.67438 6.6125 9.67438 6.16687C9.67438 5.72125 10.0913 5.36187 10.5944 5.36187C11.0975 5.36187 11.5144 5.72125 11.5144 6.16687C11.5144 6.6125 11.0975 6.97187 10.5944 6.97187ZM14.145 8.855C14.145 10.2781 15.3525 11.4281 16.8188 11.4281C18.285 11.4281 19.4925 10.2781 19.4925 8.855C19.4925 7.43187 18.285 6.28187 16.8188 6.28187C15.3525 6.28187 14.145 7.43187 14.145 8.855ZM17.7388 8.855C17.7388 9.30062 17.3219 9.66 16.8188 9.66C16.3156 9.66 15.8988 9.30062 15.8988 8.855C15.8988 8.40937 16.3156 8.05 16.8188 8.05C17.3219 8.05 17.7388 8.40937 17.7388 8.855Z" fill="black"/>
</g>
</g>
<defs>
<clipPath id="clip0_30_144">
<rect width="23" height="23" fill="white"/>
</clipPath>
<clipPath id="clip1_30_144">
<rect width="23" height="23" fill="white"/>
</clipPath>
</defs>
</svg>
