<svg width="24" height="24" viewBox="0 0 24 24" fill="none" xmlns="http://www.w3.org/2000/svg">
<path d="M10.1529 2.29018H5.18419C3.71959 2.29018 2.98728 2.29018 2.42788 2.57234C1.93581 2.82053 1.53575 3.21656 1.28504 3.70365C1 4.25742 1 4.98233 1 6.43214V18.858C1 20.3079 1 21.0328 1.28504 21.5866C1.53575 22.0736 1.93581 22.4697 2.42788 22.7178C2.98728 23 3.71959 23 5.18419 23H17.7368C19.2014 23 19.9337 23 20.4931 22.7178C20.9851 22.4697 21.3853 22.0736 21.6359 21.5866C21.921 21.0328 21.921 20.3079 21.921 18.858V13.2923M16.0369 4.23173L19.7352 7.89274M9.84264 10.3635L18.5357 1.75822C19.5569 0.747259 21.2128 0.747259 22.234 1.75822C23.2553 2.76919 23.2553 4.40828 22.234 5.41924L13.2615 14.3011C12.2657 15.287 11.7678 15.7799 11.2005 16.1718C10.6971 16.5199 10.1541 16.808 9.58283 17.0307C8.93911 17.2815 8.24883 17.4194 6.86824 17.6952L6.23024 17.8225L6.29229 17.3926C6.51184 15.8713 6.62162 15.1106 6.87133 14.4004C7.0929 13.7702 7.39561 13.171 7.77193 12.6174C8.19604 11.9935 8.74493 11.4501 9.84264 10.3635Z" stroke="black" stroke-width="2" stroke-linecap="round" stroke-linejoin="round"/>
</svg>
