<svg width="29" height="18" viewBox="0 0 29 18" fill="none" xmlns="http://www.w3.org/2000/svg">
<path d="M14.5 1C7.73516 1 2.93494 6.34568 1.27615 8.49836C0.876845 9.01661 0.914792 9.71787 1.36263 10.1957C3.20449 12.1608 8.36317 17 14.5 17C20.6369 17 25.7955 12.1608 27.6374 10.1957C28.0852 9.71787 28.1231 9.01661 27.7238 8.49836C26.0651 6.34568 21.2649 1 14.5 1Z" stroke="black" stroke-width="2"/>
<path d="M18 8.99998C18 10.5494 16.547 12 14.5 12C12.453 12 11 10.5494 11 8.99998C11 7.45054 12.453 5.99998 14.5 5.99998C16.547 5.99998 18 7.45054 18 8.99998Z" stroke="black" stroke-width="2"/>
</svg>
